<svg xmlns="http://www.w3.org/2000/svg" xmlns:xlink="http://www.w3.org/1999/xlink" width="571.91" height="343" viewBox="0 0 571.91 343">
  <defs>
    <radialGradient id="radial-gradient" cx="0.5" cy="0.5" r="0.5" gradientUnits="objectBoundingBox">
      <stop offset="0" stop-color="#1e2127"/>
      <stop offset="1" stop-color="#ededed"/>
    </radialGradient>
  </defs>
  <g id="Group_168" data-name="Group 168" transform="translate(-612 -291)">
    <g id="Rectangle_129" data-name="Rectangle 129" transform="translate(612 305)" fill="none" stroke="#1e2127" stroke-width="1">
      <rect width="204" height="204" rx="23" stroke="none"/>
      <rect x="0.5" y="0.5" width="203" height="203" rx="22.5" fill="none"/>
    </g>
    <g id="Rectangle_130" data-name="Rectangle 130" transform="translate(640 291)" fill="none" stroke="#1e2127" stroke-width="1">
      <rect width="191" height="191" rx="23" stroke="none"/>
      <rect x="0.5" y="0.5" width="190" height="190" rx="22.5" fill="none"/>
    </g>
    <g id="Ellipse_164" data-name="Ellipse 164" transform="translate(1067 368)" fill="none" stroke="#1e2127" stroke-width="1" opacity="0.381">
      <circle cx="4.5" cy="4.5" r="4.5" stroke="none"/>
      <circle cx="4.5" cy="4.5" r="4" fill="none"/>
    </g>
    <g id="Beaker_r" transform="translate(878.541 338.248)">
      <path id="Path_290" data-name="Path 290" d="M45.154,68.179a1.326,1.326,0,1,1-.819,2.522l-.584-.19L38.566,86.467l2.973,23.184a6.876,6.876,0,0,1-8.945,7.414l-22.274-7.237A6.876,6.876,0,0,1,7.442,98.572L24.324,80.664l4.839-14.893-.919-.3a1.326,1.326,0,1,1,.819-2.522Z" transform="translate(-5.566 -48.39)" fill="none" stroke="#1e2127" stroke-width="1" fill-rule="evenodd"/>
      <path id="Path_291" data-name="Path 291" d="M24.9,151.262a2.587,2.587,0,0,0-2.882.766l-6.094,7.195a3,3,0,0,0,1.361,4.788l23.931,7.776a3,3,0,0,0,3.91-3.14l-.547-5.626a3.56,3.56,0,0,0-3.052-2.917,19.163,19.163,0,0,1-4.808-1.509c-2.808-1.276-4.12-3.313-7.481-5.446A31.684,31.684,0,0,0,24.9,151.262Z" transform="translate(-11.809 -105.498)" fill="#fe672c" fill-rule="evenodd"/>
      <path id="Path_292" data-name="Path 292" d="M58.228,176.01a1.679,1.679,0,1,1,2.112-1.079A1.677,1.677,0,0,1,58.228,176.01Z" transform="translate(-38.91 -119.503)" fill="#cd5323" fill-rule="evenodd"/>
      <path id="Path_293" data-name="Path 293" d="M64.951,188.555a1.237,1.237,0,1,1,1.556-.8A1.236,1.236,0,0,1,64.951,188.555Z" transform="translate(-43.459 -128.183)" fill="#cd5323" fill-rule="evenodd"/>
      <path id="Path_295" data-name="Path 295" d="M88.637,41.837a2.563,2.563,0,1,1,3.224-1.647A2.56,2.56,0,0,1,88.637,41.837Z" transform="translate(-58.201 -31.526)" fill="#fe672c" fill-rule="evenodd"/>
      <path id="Path_296" data-name="Path 296" d="M121.982,25.4a1.856,1.856,0,1,1,2.334-1.193A1.853,1.853,0,0,1,121.982,25.4Z" transform="translate(-80.103 -21.777)" fill="#fe672c" fill-rule="evenodd"/>
    </g>
    <ellipse id="Ellipse_165" data-name="Ellipse 165" cx="19" cy="3.5" rx="19" ry="3.5" transform="translate(889 417)" opacity="0.151" fill="url(#radial-gradient)"/>
    <ellipse id="Ellipse_166" data-name="Ellipse 166" cx="19" cy="3.5" rx="19" ry="3.5" transform="translate(971 547)" opacity="0.143" fill="url(#radial-gradient)"/>
    <ellipse id="Ellipse_167" data-name="Ellipse 167" cx="20.5" cy="3.5" rx="20.5" ry="3.5" transform="translate(819 627)" opacity="0.205" fill="url(#radial-gradient)"/>
    <g id="atom" transform="matrix(0.985, 0.174, -0.174, 0.985, 951.242, 502.509)">
      <g id="Group_132" data-name="Group 132" transform="translate(27.921)">
        <g id="Group_131" data-name="Group 131" transform="translate(0)">
          <path id="Path_297" data-name="Path 297" d="M51.641,16.23A29.256,29.256,0,0,0,46.2,11.584c-.091-1.224-.236-2.409-.432-3.523a20.923,20.923,0,0,1,2.167-.566c2.345-.471,4.016-.28,4.472.51.478.828-.309,2.52-2.055,4.416a.686.686,0,0,0,1.01.93c2.266-2.461,3.059-4.6,2.234-6.033-.8-1.383-2.849-1.788-5.931-1.169a29.249,29.249,0,0,0-6.744,2.39c-1.1-.532-2.2-1-3.257-1.383.787-3.544,2.067-5.782,3.258-5.782.937,0,1.994,1.482,2.759,3.867a.687.687,0,0,0,1.307-.419C43.976,1.667,42.57,0,40.92,0c-2.278,0-3.874,3.191-4.711,7.375h0a.669.669,0,0,0-.032.162,35.442,35.442,0,0,0-.532,4.047,35.465,35.465,0,0,0-2.84,2.14,20.984,20.984,0,0,1-1.574-1.593C29.651,10.337,28.98,8.794,29.436,8c.477-.826,2.33-.992,4.837-.432a.686.686,0,0,0,.3-1.34c-3.256-.727-5.5-.342-6.326,1.085-.8,1.383-.123,3.362,1.953,5.721a29.248,29.248,0,0,0,5.442,4.646c.091,1.224.236,2.409.432,3.523a20.892,20.892,0,0,1-2.167.566c-2.344.471-4.016.28-4.472-.51-.483-.836.321-2.545,2.1-4.461a.687.687,0,0,0-1.007-.934c-2.3,2.482-3.109,4.642-2.278,6.081.556.962,1.717,1.451,3.41,1.451a12.952,12.952,0,0,0,2.522-.282,29.25,29.25,0,0,0,6.745-2.39c1.1.532,2.2,1,3.257,1.384-.787,3.544-2.067,5.782-3.259,5.782-.935,0-1.99-1.475-2.753-3.85a.686.686,0,0,0-1.307.42c1.01,3.142,2.414,4.8,4.06,4.8,2.275,0,3.87-3.185,4.708-7.361a.125.125,0,0,0,.006-.013.689.689,0,0,0,.033-.18,35.407,35.407,0,0,0,.529-4.031,35.4,35.4,0,0,0,2.841-2.139,20.979,20.979,0,0,1,1.574,1.593c1.58,1.795,2.251,3.338,1.795,4.127-.475.824-2.322.991-4.819.436a.687.687,0,0,0-.3,1.341,13.345,13.345,0,0,0,2.86.354c1.7,0,2.894-.488,3.446-1.444C54.393,20.568,53.718,18.59,51.641,16.23Zm-17.788-1.6c.533-.441,1.1-.877,1.7-1.306q-.021.654-.021,1.306c0,.439.009.877.023,1.313Q34.655,15.3,33.853,14.635Zm10.6-6.122c.115.682.208,1.393.283,2.122q-.551-.341-1.12-.671c-.381-.22-.764-.43-1.148-.636C43.141,9.026,43.8,8.755,44.454,8.513Zm-7.058,0c.645.24,1.3.514,1.969.812q-.571.307-1.141.635c-.379.219-.751.444-1.119.673C37.183,9.9,37.281,9.19,37.4,8.518Zm-.008,12.238c-.115-.682-.208-1.393-.283-2.122q.551.341,1.12.671c.381.22.764.43,1.148.636C38.7,20.242,38.037,20.513,37.387,20.755Zm7.058,0c-.645-.241-1.3-.515-1.969-.812q.571-.307,1.141-.635c.378-.219.75-.444,1.119-.672C44.658,19.372,44.56,20.079,44.445,20.752Zm.428-3.835c-.63.413-1.279.815-1.943,1.2s-1.34.747-2.007,1.084c-.673-.339-1.346-.7-2.012-1.084s-1.317-.787-1.943-1.2c-.043-.752-.067-1.515-.067-2.285s.024-1.544.066-2.282c.629-.413,1.278-.815,1.943-1.2s1.34-.747,2.007-1.084c.673.339,1.346.7,2.013,1.084s1.317.787,1.942,1.2c.043.752.067,1.515.067,2.285S44.916,16.178,44.874,16.916Zm1.418-.976q.021-.654.021-1.306c0-.439-.009-.877-.023-1.313q.9.647,1.7,1.311C47.453,15.074,46.886,15.511,46.291,15.94Z" transform="translate(-27.921)" fill="#45afe3"/>
        </g>
      </g>
      <g id="Group_134" data-name="Group 134" transform="translate(38.632 12.346)">
        <g id="Group_133" data-name="Group 133" transform="translate(0)">
          <path id="Path_298" data-name="Path 298" d="M213.2,210.916a2.288,2.288,0,1,0,2.288,2.288A2.291,2.291,0,0,0,213.2,210.916Z" transform="translate(-210.912 -210.916)" fill="#45afe3"/>
        </g>
      </g>
    </g>
    <g id="molecular" transform="matrix(0.966, -0.259, 0.259, 0.966, 823.392, 586.894)">
      <g id="Group_136" data-name="Group 136" transform="translate(0 1.843)">
        <g id="Group_135" data-name="Group 135">
          <path id="Path_299" data-name="Path 299" d="M2.158,1.843A2.158,2.158,0,1,0,4.316,4,2.16,2.16,0,0,0,2.158,1.843Zm0,3.3A1.14,1.14,0,1,1,3.3,4,1.141,1.141,0,0,1,2.158,5.141Z" transform="translate(0 -1.843)" fill="#f8126a"/>
        </g>
      </g>
      <g id="Group_138" data-name="Group 138" transform="translate(12.642 2.942)">
        <g id="Group_137" data-name="Group 137" transform="translate(0 0)">
          <path id="Path_300" data-name="Path 300" d="M88.594,9.216A3.807,3.807,0,1,0,92.4,13.023,3.811,3.811,0,0,0,88.594,9.216Zm0,6.6a2.789,2.789,0,1,1,2.789-2.789A2.792,2.792,0,0,1,88.594,15.812Z" transform="translate(-84.787 -9.216)" fill="#f8126a"/>
        </g>
      </g>
      <g id="Group_140" data-name="Group 140" transform="translate(18.688 14.485)">
        <g id="Group_139" data-name="Group 139">
          <path id="Path_301" data-name="Path 301" d="M130.243,86.63a4.906,4.906,0,1,0,4.906,4.906A4.912,4.912,0,0,0,130.243,86.63Zm0,8.794a3.888,3.888,0,1,1,3.888-3.888A3.893,3.893,0,0,1,130.243,95.424Z" transform="translate(-125.337 -86.63)" fill="#f8126a"/>
        </g>
      </g>
      <g id="Group_142" data-name="Group 142" transform="translate(1.099 17.783)">
        <g id="Group_141" data-name="Group 141">
          <path id="Path_302" data-name="Path 302" d="M13.378,108.749a6.005,6.005,0,1,0,6.005,6.005A6.012,6.012,0,0,0,13.378,108.749Zm0,10.993a4.988,4.988,0,1,1,4.988-4.988A4.993,4.993,0,0,1,13.378,119.742Z" transform="translate(-7.373 -108.749)" fill="#f8126a"/>
        </g>
      </g>
      <g id="Group_144" data-name="Group 144" transform="translate(3.461 23.279)">
        <g id="Group_143" data-name="Group 143">
          <path id="Path_303" data-name="Path 303" d="M26.855,148.748a2.629,2.629,0,0,1-2.626-2.626.509.509,0,1,0-1.018,0,3.648,3.648,0,0,0,3.644,3.644.509.509,0,1,0,0-1.018Z" transform="translate(-23.211 -145.613)" fill="#f8126a"/>
        </g>
      </g>
      <g id="Group_146" data-name="Group 146" transform="translate(3.298 4.042)">
        <g id="Group_145" data-name="Group 145" transform="translate(0 0)">
          <path id="Path_304" data-name="Path 304" d="M32.059,18.247,22.715,16.6a.509.509,0,1,0-.177,1l9.344,1.649a.5.5,0,0,0,.089.008.509.509,0,0,0,.088-1.01Z" transform="translate(-22.117 -16.59)" fill="#f8126a"/>
        </g>
      </g>
      <g id="Group_148" data-name="Group 148" transform="translate(9.344 9.538)">
        <g id="Group_147" data-name="Group 147">
          <path id="Path_305" data-name="Path 305" d="M68.372,53.516a.509.509,0,0,0-.693.194L62.732,62.5a.509.509,0,1,0,.887.5l4.947-8.794A.509.509,0,0,0,68.372,53.516Z" transform="translate(-62.667 -53.451)" fill="#f8126a"/>
        </g>
      </g>
      <g id="Group_150" data-name="Group 150" transform="translate(12.092 20.531)">
        <g id="Group_149" data-name="Group 149">
          <path id="Path_306" data-name="Path 306" d="M88.7,127.565a.51.51,0,0,0-.617-.371l-6.6,1.649a.509.509,0,1,0,.246.988l6.6-1.649A.509.509,0,0,0,88.7,127.565Z" transform="translate(-81.1 -127.179)" fill="#f8126a"/>
        </g>
      </g>
    </g>
    <g id="Polygon_5" data-name="Polygon 5" transform="matrix(0.788, -0.616, 0.616, 0.788, 1165.49, 395.919)" fill="none" opacity="0.356">
      <path d="M5.272,2.962a2,2,0,0,1,3.455,0l3.518,6.031A2,2,0,0,1,10.518,12H3.482A2,2,0,0,1,1.755,8.992Z" stroke="none"/>
      <path d="M 7.000000476837158 2.969268798828125 C 6.827300548553467 2.969268798828125 6.397430419921875 3.017608642578125 6.136220455169678 3.465398788452148 L 2.618300437927246 9.496128082275391 C 2.355050086975098 9.947399139404297 2.528250694274902 10.34713840484619 2.614930152893066 10.4980583190918 C 2.701610565185547 10.64897918701172 2.959630012512207 10.99999904632568 3.482070922851562 10.99999904632568 L 10.51793098449707 10.99999904632568 C 11.04037094116211 10.99999904632568 11.29839038848877 10.64897918701172 11.38507080078125 10.4980583190918 C 11.47175025939941 10.34713840484619 11.64495086669922 9.947399139404297 11.38170051574707 9.496128082275391 L 7.863780498504639 3.465398788452148 C 7.602570533752441 3.017608642578125 7.17270040512085 2.969268798828125 7.000000476837158 2.969268798828125 M 7.000000476837158 1.969271659851074 C 7.670840263366699 1.969271659851074 8.341680526733398 2.300024032592773 8.727560043334961 2.961528778076172 L 12.24548053741455 8.992258071899414 C 13.02325057983398 10.32556915283203 12.06151008605957 11.99999904632568 10.51793098449707 11.99999904632568 L 3.482070922851562 11.99999904632568 C 1.938490867614746 11.99999904632568 0.976750373840332 10.32556915283203 1.754520416259766 8.992258071899414 L 5.272440910339355 2.961528778076172 C 5.658320426940918 2.300024032592773 6.329160690307617 1.969271659851074 7.000000476837158 1.969271659851074 Z" stroke="none" fill="#1e2127"/>
    </g>
    <g id="divide" transform="translate(1027.013 436.222) rotate(-34)" opacity="0.516">
      <g id="Group_152" data-name="Group 152" transform="translate(0 21.333)">
        <g id="Group_151" data-name="Group 151">
          <path id="Path_307" data-name="Path 307" d="M17.155,234.667H.746a.746.746,0,0,0,0,1.492H17.155a.746.746,0,0,0,0-1.492Z" transform="translate(0 -227.208)" fill="#1e2127"/>
          <path id="Path_308" data-name="Path 308" d="M173.65,27.3a2.983,2.983,0,1,0-2.983-2.983A2.983,2.983,0,0,0,173.65,27.3Zm0-4.475a1.492,1.492,0,1,1-1.492,1.492A1.492,1.492,0,0,1,173.65,22.825Z" transform="translate(-164.7 -21.333)" fill="#1e2127"/>
          <path id="Path_309" data-name="Path 309" d="M173.65,320a2.983,2.983,0,1,0,2.983,2.983A2.983,2.983,0,0,0,173.65,320Zm0,4.475a1.492,1.492,0,1,1,1.492-1.492A1.492,1.492,0,0,1,173.65,324.475Z" transform="translate(-164.7 -309.558)" fill="#1e2127"/>
        </g>
      </g>
    </g>
    <g id="function" transform="matrix(0.914, -0.407, 0.407, 0.914, 937.797, 472.417)">
      <path id="Path_310" data-name="Path 310" d="M10,1.667V0A4.824,4.824,0,0,0,5.251,3.964L4.3,9.167H2.083v1.667H4l-.892,4.9A3.158,3.158,0,0,1,0,18.333V20a4.824,4.824,0,0,0,4.749-3.964l.946-5.2H7.5V9.167H6l.892-4.9A3.158,3.158,0,0,1,10,1.667Zm0,0" fill="#1e2127"/>
      <path id="Path_311" data-name="Path 311" d="M170.083,86.9l-.667-.5A9.561,9.561,0,0,0,168,91.9a9.561,9.561,0,0,0,1.417,5.5l1.333-1a9.885,9.885,0,0,1,0-9.005Zm0,0" transform="translate(-159.25 -81.899)" fill="#1e2127"/>
      <path id="Path_312" data-name="Path 312" d="M331.133,87.4a9.884,9.884,0,0,1,0,9.005l.67.495.667.5a9.557,9.557,0,0,0,1.417-5.5,9.561,9.561,0,0,0-1.417-5.5Zm0,0" transform="translate(-313.883 -81.899)" fill="#1e2127"/>
      <path id="Path_313" data-name="Path 313" d="M230.4,142.586l-.993,1.365-.993-1.365-1.348.981,1.31,1.8-1.31,1.8,1.348.981.993-1.365.993,1.365,1.348-.981-1.31-1.8,1.31-1.8Zm0,0" transform="translate(-215.236 -135.16)" fill="#1e2127"/>
    </g>
    <g id="pi-mathematical-constant-symbol" transform="translate(759 421.487)">
      <g id="Group_153" data-name="Group 153" transform="translate(0 2.513)">
        <path id="Path_314" data-name="Path 314" d="M25.973,28.127c-4.771-3.73-1.4-19.074-1.4-19.074H30.4a3.01,3.01,0,0,0,2.994-3.24c0-3.514-2.915-3.3-2.915-3.3H9.01c-3.524,0-6.7,4.035-8.53,6.921-.972,1.541-.422,1.973,1.247,1.247,5.851-2.562,7.5-1.639,7.5-1.639.412,1.973.55,10.877-.952,14.391-1.522,3.308-4.329,7.5-.206,9.964,3.22,1.826,6.6-1.924,6.263-8.305-.157-3.377-.422-16.04-.422-16.04h5.38c-.167,1.973-1.08,12.045-.127,18.014C20.153,37.03,30.98,35.1,33,29.453a5.2,5.2,0,0,0,.01-3.662c-.687-1.678-1.836-1.766-1.708-.982a4.321,4.321,0,0,1-.049,1.433C31.019,27.607,28.231,29.746,25.973,28.127Z" transform="translate(0 -2.513)" fill="#1e2127"/>
      </g>
    </g>
  </g>
</svg>
