<svg xmlns="http://www.w3.org/2000/svg" width="590.35" height="357.836" viewBox="0 0 590.35 357.836">
  <g id="Group_171" data-name="Group 171" transform="translate(-620.65 -210.164)">
    <path id="Path_317" data-name="Path 317" d="M11783.068,274.482h28.031v-14.74h30.117v-29.2h19.246V177.273l13.729-14.353,14.353,14.353v64.282h9.918v12.087h6.964V218.82h13.562l7.029-10.361h16.882l7.529-42.843-2.573-34.749,12.6-12.6,9.147-99.1,8.563,99.1,12.6,12.6-1.942,34.749,13.8,94.126h4.795L12014.6,140.4h3.6V122.96h3V140.4h4.111v58.385h7.82v18.53h19.154v42.43h11.878V179.982h7V168.137h18.246v-3.93h8.751v3.93h3.86v20.955h7.419v21.339h16.229V245h14.213V230.369h2.984V219.822h2.232v10.547h5.708v12.863h15.873v31.017h26.5" transform="translate(-11109.221 192)" fill="none" stroke="#1e2127" stroke-linecap="round" stroke-linejoin="round" stroke-width="2"/>
    <path id="Path_318" data-name="Path 318" d="M11715.65,151.8h100.324s-.594-15.715,17.77-15.6,24.025-13.214,24.025-13.214,18.344-15.934,31.719,0,16.611,13.98,25,13.214,15.389-2.2,23.516,8.672" transform="translate(-11095 172.214)" fill="none" stroke="#1e2127" stroke-linejoin="round" stroke-width="2"/>
    <path id="Path_319" data-name="Path 319" d="M11852.46,158.225h9.738s5.664,11.063,10.678,9.3,14.5-12.845,19.547-11.7" transform="translate(-11117.049 165.794)" fill="none" stroke="#1e2127" stroke-linejoin="round" stroke-width="2"/>
    <path id="Path_320" data-name="Path 320" d="M11790.679,165.013h36.442" transform="translate(-11110.447 168.494)" fill="none" stroke="#1e2127" stroke-width="2"/>
    <path id="Path_321" data-name="Path 321" d="M12072.9,170.947h17.224s-.909-17.7,17.271-14.014,25.836-12.673,25.836-12.673,13.366-14.91,27.819,0,37.586-12.17,37.586-12.17,33.688-21.427,39.768,12.17,32.48,26.686,32.48,26.686,9.676-4.216,30.546-4.216h65.5" transform="translate(-11155.933 174.885)" fill="none" stroke="#1e2127" stroke-linejoin="round" stroke-width="2"/>
    <path id="Subtraction_1" data-name="Subtraction 1" d="M36.247,63.108h0A13.883,13.883,0,0,1,25.99,58.626C21.728,54.23,17.141,52,12.355,52A17.916,17.916,0,0,0,3.44,54.535,38.574,38.574,0,0,1,38.586,0,38.553,38.553,0,0,1,77.172,38.586c0,.706-.02,1.424-.059,2.133a52.247,52.247,0,0,0-13.537,5.738,72.732,72.732,0,0,1-8.748,8.326,48.529,48.529,0,0,1-8.781,5.724A22.517,22.517,0,0,1,36.247,63.108Z" transform="translate(979.125 260.518)" fill="none" stroke="#1e2127" stroke-width="2"/>
    <g id="Ellipse_171" data-name="Ellipse 171" transform="translate(996 276)" fill="none" stroke="#1e2127" stroke-width="2">
      <ellipse cx="4.5" cy="5" rx="4.5" ry="5" stroke="none"/>
      <ellipse cx="4.5" cy="5" rx="3.5" ry="4" fill="none"/>
    </g>
    <g id="Ellipse_172" data-name="Ellipse 172" transform="translate(1011 275)" fill="none" stroke="#1e2127" stroke-width="2">
      <ellipse cx="3.5" cy="3" rx="3.5" ry="3" stroke="none"/>
      <ellipse cx="3.5" cy="3" rx="2.5" ry="2" fill="none"/>
    </g>
    <g id="Ellipse_173" data-name="Ellipse 173" transform="translate(1019 297)" fill="none" stroke="#1e2127" stroke-width="2">
      <ellipse cx="6.5" cy="6" rx="6.5" ry="6" stroke="none"/>
      <ellipse cx="6.5" cy="6" rx="5.5" ry="5" fill="none"/>
    </g>
    <g id="Polygon_6" data-name="Polygon 6" transform="translate(948.137 238.002) rotate(13)" fill="none">
      <path d="M14.744,0a5,5,0,0,1,4.319,2.481l2.955,5.066a5,5,0,0,1,0,5.039l-2.955,5.066a5,5,0,0,1-4.319,2.481h-6a5,5,0,0,1-4.319-2.481L1.47,12.585a5,5,0,0,1,0-5.039L4.425,2.481A5,5,0,0,1,8.744,0Z" stroke="none"/>
      <path d="M 8.743683815002441 0.9999980926513672 C 7.326543807983398 0.9999980926513672 6.002614974975586 1.760417938232422 5.288564682006836 2.984518051147461 L 2.333404541015625 8.050498962402344 C 1.608203887939453 9.293698310852051 1.608203887939453 10.8382682800293 2.333404541015625 12.08146858215332 L 5.288564682006836 17.14745903015137 C 6.002614974975586 18.37155914306641 7.326534271240234 19.13197898864746 8.743674278259277 19.13197898864746 L 14.74362468719482 19.13197898864746 C 16.1607551574707 19.13197898864746 17.48468399047852 18.37155914306641 18.19873428344727 17.14746856689453 L 21.15390396118164 12.08147811889648 C 21.87910461425781 10.83827877044678 21.87910461425781 9.293698310852051 21.15390396118164 8.050498962402344 L 18.19873428344727 2.984518051147461 C 17.48468399047852 1.760417938232422 16.16076469421387 0.9999980926513672 14.74362468719482 0.9999980926513672 L 8.743683815002441 0.9999980926513672 M 8.743683815002441 -1.9073486328125e-06 L 14.74362468719482 -1.9073486328125e-06 C 16.52196502685547 -1.9073486328125e-06 18.16646385192871 0.9445590972900391 19.06251525878906 2.480648040771484 L 22.01768493652344 7.546628952026367 C 22.92582511901855 9.103448867797852 22.92582511901855 11.02852821350098 22.01768493652344 12.58534812927246 L 19.06251525878906 17.65133857727051 C 18.16646385192871 19.18741798400879 16.52196502685547 20.13197898864746 14.74362468719482 20.13197898864746 L 8.743674278259277 20.13197898864746 C 6.965343475341797 20.13197898864746 5.320835113525391 19.18741798400879 4.424783706665039 17.65132904052734 L 1.469623565673828 12.5853385925293 C 0.5614833831787109 11.02852821350098 0.5614833831787109 9.103438377380371 1.469623565673828 7.546628952026367 L 4.424783706665039 2.480648040771484 C 5.320835113525391 0.9445590972900391 6.965343475341797 -1.9073486328125e-06 8.743683815002441 -1.9073486328125e-06 Z" stroke="none" fill="#1e2127"/>
    </g>
    <g id="Polygon_7" data-name="Polygon 7" transform="translate(944.719 273.474) rotate(-11)" fill="none">
      <path d="M5.936,0a5,5,0,0,1,4.319,2.481l.019.033a5,5,0,0,1,0,5.039l-.019.033a5,5,0,0,1-4.319,2.481H5.808A5,5,0,0,1,1.489,7.585L1.47,7.552a5,5,0,0,1,0-5.039l.019-.033A5,5,0,0,1,5.808,0Z" stroke="none"/>
      <path d="M 5.807765960693359 1.000003814697266 C 4.390625953674316 1.000003814697266 3.066705703735352 1.760424613952637 2.352585792541504 2.98462438583374 L 2.333406448364258 3.017504215240479 C 1.608205795288086 4.260704040527344 1.608205795288086 5.80528450012207 2.333516120910645 7.048664093017578 L 2.352645874023438 7.081474304199219 C 3.066696166992188 8.305563926696777 4.390615940093994 9.065984725952148 5.807765960693359 9.065984725952148 L 5.935886383056641 9.065984725952148 C 7.353026390075684 9.065984725952148 8.676946640014648 8.305563926696777 9.39106559753418 7.081364154815674 L 9.410245895385742 7.048484325408936 C 10.13544654846191 5.80528450012207 10.13544654846191 4.260704040527344 9.410196304321289 3.0174241065979 L 9.391006469726562 2.984514236450195 C 8.676946640014648 1.760424613952637 7.353026390075684 1.000003814697266 5.935886383056641 1.000003814697266 L 5.807765960693359 1.000003814697266 M 5.807765960693359 3.814697265625e-06 L 5.935886383056641 3.814697265625e-06 C 7.714226245880127 3.814697265625e-06 9.358726501464844 0.944554328918457 10.25478649139404 2.480644226074219 L 10.27402591705322 2.513634204864502 C 11.18216609954834 4.070454120635986 11.18216609954834 5.995534420013428 10.27402591705322 7.552354335784912 L 10.25477600097656 7.585344314575195 C 9.358726501464844 9.121434211730957 7.714226245880127 10.06598472595215 5.935886383056641 10.06598472595215 L 5.807765960693359 10.06598472595215 C 4.029426097869873 10.06598472595215 2.384916305541992 9.121434211730957 1.488865852355957 7.585344314575195 L 1.469626426696777 7.55234432220459 C 0.5614862442016602 5.995534420013428 0.5614862442016602 4.070454120635986 1.469626426696777 2.513634204864502 L 1.488876342773438 2.480644226074219 C 2.384925842285156 0.944554328918457 4.029426097869873 3.814697265625e-06 5.807765960693359 3.814697265625e-06 Z" stroke="none" fill="#1e2127"/>
    </g>
    <rect id="Rectangle_139" data-name="Rectangle 139" width="18" height="18" rx="5" transform="translate(1027 466)" fill="#1e2127"/>
    <g id="Rectangle_140" data-name="Rectangle 140" transform="translate(1056 475)" fill="#ededed" stroke="#1e2127" stroke-width="1">
      <rect width="28" height="28" rx="5" stroke="none"/>
      <rect x="0.5" y="0.5" width="27" height="27" rx="4.5" fill="none"/>
    </g>
    <rect id="Rectangle_141" data-name="Rectangle 141" width="43" height="43" rx="5" transform="translate(1016 510)" fill="#1e2127"/>
    <rect id="Rectangle_143" data-name="Rectangle 143" width="124" height="29" rx="7" transform="translate(674 539)" fill="#1e2127"/>
    <rect id="Rectangle_144" data-name="Rectangle 144" width="11" height="11" rx="2" transform="translate(685 548)" fill="#fff"/>
    <path id="Path_324" data-name="Path 324" d="M11979,333h123.285V297.086h-21.59" transform="translate(-11181 220)" fill="none" stroke="#1e2127" stroke-linejoin="round" stroke-width="1"/>
    <g id="Rectangle_142" data-name="Rectangle 142" transform="translate(674 503)" fill="#ededed" stroke="#1e2127" stroke-width="1">
      <rect width="229" height="29" rx="7" stroke="none"/>
      <rect x="0.5" y="0.5" width="228" height="28" rx="6.5" fill="none"/>
    </g>
    <g id="Rectangle_145" data-name="Rectangle 145" transform="translate(887 546)" fill="#ededed" stroke="#1e2127" stroke-width="1">
      <rect width="5" height="15" rx="2.5" stroke="none"/>
      <rect x="0.5" y="0.5" width="4" height="14" rx="2" fill="none"/>
    </g>
    <g id="Rectangle_147" data-name="Rectangle 147" transform="translate(833 546)" fill="#1e2127" stroke="#1e2127" stroke-width="1">
      <rect width="5" height="15" rx="2.5" stroke="none"/>
      <rect x="0.5" y="0.5" width="4" height="14" rx="2" fill="none"/>
    </g>
    <g id="Rectangle_146" data-name="Rectangle 146" transform="translate(898 546)" fill="#ededed" stroke="#1e2127" stroke-width="1">
      <rect width="5" height="15" rx="2.5" stroke="none"/>
      <rect x="0.5" y="0.5" width="4" height="14" rx="2" fill="none"/>
    </g>
    <g id="Ellipse_174" data-name="Ellipse 174" transform="translate(685 514)" fill="#ededed" stroke="#1e2127" stroke-width="1">
      <circle cx="4" cy="4" r="4" stroke="none"/>
      <circle cx="4" cy="4" r="3.5" fill="none"/>
    </g>
    <g id="Ellipse_175" data-name="Ellipse 175" transform="translate(698 514)" fill="#ededed" stroke="#1e2127" stroke-width="1">
      <circle cx="4" cy="4" r="4" stroke="none"/>
      <circle cx="4" cy="4" r="3.5" fill="none"/>
    </g>
    <g id="Ellipse_176" data-name="Ellipse 176" transform="translate(711 514)" fill="#1e2127" stroke="#1e2127" stroke-width="1">
      <circle cx="4" cy="4" r="4" stroke="none"/>
      <circle cx="4" cy="4" r="3.5" fill="none"/>
    </g>
  </g>
</svg>
