<svg xmlns="http://www.w3.org/2000/svg" width="29.872" height="35.486" viewBox="0 0 29.872 35.486">
  <path id="copy" d="M18.783,35.486H5.545A5.551,5.551,0,0,1,0,29.941V11.159A5.551,5.551,0,0,1,5.545,5.614H18.783a5.551,5.551,0,0,1,5.545,5.545V29.941A5.551,5.551,0,0,1,18.783,35.486ZM5.545,8.386a2.776,2.776,0,0,0-2.772,2.772V29.941a2.776,2.776,0,0,0,2.772,2.772H18.783a2.776,2.776,0,0,0,2.772-2.772V11.159a2.776,2.776,0,0,0-2.772-2.772ZM29.872,26.476V5.545A5.551,5.551,0,0,0,24.327,0H8.941a1.386,1.386,0,1,0,0,2.772H24.327A2.776,2.776,0,0,1,27.1,5.545V26.476a1.386,1.386,0,0,0,2.772,0Zm0,0" fill="#444357"/>
</svg>
