<svg xmlns="http://www.w3.org/2000/svg" width="29.872" height="29.851" viewBox="0 0 29.872 29.851">
  <g id="art-and-design" transform="translate(0 0)">
    <path id="Path_388" data-name="Path 388" d="M9.795,30.04H7a7,7,0,0,1-7-7V7.185a7,7,0,0,1,7-7h2.8a7,7,0,0,1,7,7V23.043A7,7,0,0,1,9.795,30.04ZM7,2.521A4.669,4.669,0,0,0,2.332,7.185V23.043A4.669,4.669,0,0,0,7,27.708h2.8a4.669,4.669,0,0,0,4.664-4.664V7.185A4.669,4.669,0,0,0,9.795,2.521Zm13.94,16.347,3.023-4.982a7,7,0,0,0-2.322-9.612l-1.486-.933a1.166,1.166,0,0,0-1.24,1.975l1.492.937.013.008a4.67,4.67,0,0,1,1.551,6.413l-3.025,4.984a1.166,1.166,0,1,0,1.994,1.21Zm-.385,6.8,5.978-3.689A6.94,6.94,0,0,0,28.8,12.348a1.166,1.166,0,1,0-1.988,1.218,4.609,4.609,0,0,1-1.507,6.426l-5.982,3.691a1.166,1.166,0,1,0,1.225,1.985ZM9.911,23.626a1.458,1.458,0,1,0-1.458,1.458A1.458,1.458,0,0,0,9.911,23.626Zm.758-9.62a1.458,1.458,0,1,1,1.458-1.458A1.458,1.458,0,0,1,10.669,14.007Zm-3.09,4.2a1.458,1.458,0,1,0-1.458,1.458A1.458,1.458,0,0,0,7.579,18.2Zm0-11.194A1.458,1.458,0,1,0,6.122,8.468,1.458,1.458,0,0,0,7.579,7.01Zm0,5.539a1.458,1.458,0,1,0-1.458,1.458A1.458,1.458,0,0,0,7.579,12.549Zm4.548-5.6A1.458,1.458,0,1,0,10.669,8.41,1.458,1.458,0,0,0,12.127,6.952Zm0,11.252a1.458,1.458,0,1,0-1.458,1.458A1.458,1.458,0,0,0,12.127,18.2Z" transform="translate(0 -0.189)" fill="#444357"/>
  </g>
</svg>
