<svg xmlns="http://www.w3.org/2000/svg" width="21" height="21" viewBox="0 0 21 21">
  <path id="linkedin" d="M19.1,0H1.9A1.9,1.9,0,0,0,0,1.9V19.1A1.9,1.9,0,0,0,1.9,21H19.1A1.9,1.9,0,0,0,21,19.1V1.9A1.9,1.9,0,0,0,19.1,0ZM6.5,18.133a.553.553,0,0,1-.553.553H3.592a.553.553,0,0,1-.553-.553V8.268a.553.553,0,0,1,.553-.553H5.945a.553.553,0,0,1,.553.553ZM4.769,6.786A2.236,2.236,0,1,1,7,4.55,2.236,2.236,0,0,1,4.769,6.786ZM18.8,18.177a.508.508,0,0,1-.508.508H15.763a.508.508,0,0,1-.508-.508V13.55c0-.69.2-3.025-1.8-3.025-1.556,0-1.872,1.6-1.935,2.315v5.337a.508.508,0,0,1-.508.508H8.565a.508.508,0,0,1-.508-.508V8.224a.508.508,0,0,1,.508-.508h2.442a.508.508,0,0,1,.508.508v.861A3.467,3.467,0,0,1,14.776,7.55c4.043,0,4.02,3.778,4.02,5.853v4.774Z" fill="#0077b7"/>
</svg>
