<svg id="menu" xmlns="http://www.w3.org/2000/svg" width="35" height="35" viewBox="0 0 35 35">
  <g id="Group_275" data-name="Group 275" transform="translate(18.867)">
    <g id="Group_274" data-name="Group 274">
      <path id="Path_382" data-name="Path 382" d="M286.664,0h-5.2A5.475,5.475,0,0,0,276,5.469v5.2a5.475,5.475,0,0,0,5.469,5.469h5.2a5.475,5.475,0,0,0,5.469-5.469v-5.2A5.475,5.475,0,0,0,286.664,0ZM289.4,10.664a2.737,2.737,0,0,1-2.734,2.734h-5.2a2.737,2.737,0,0,1-2.734-2.734v-5.2a2.737,2.737,0,0,1,2.734-2.734h5.2A2.737,2.737,0,0,1,289.4,5.469Z" transform="translate(-276)" fill="#1e2127"/>
    </g>
  </g>
  <g id="Group_277" data-name="Group 277">
    <g id="Group_276" data-name="Group 276">
      <path id="Path_383" data-name="Path 383" d="M10.664,0h-5.2A5.475,5.475,0,0,0,0,5.469v5.2a5.475,5.475,0,0,0,5.469,5.469h5.2a5.475,5.475,0,0,0,5.469-5.469v-5.2A5.475,5.475,0,0,0,10.664,0ZM13.4,10.664A2.737,2.737,0,0,1,10.664,13.4h-5.2a2.737,2.737,0,0,1-2.734-2.734v-5.2A2.737,2.737,0,0,1,5.469,2.734h5.2A2.737,2.737,0,0,1,13.4,5.469Z" fill="#1e2127"/>
    </g>
  </g>
  <g id="Group_279" data-name="Group 279" transform="translate(0 18.867)">
    <g id="Group_278" data-name="Group 278">
      <path id="Path_384" data-name="Path 384" d="M10.664,276h-5.2A5.475,5.475,0,0,0,0,281.469v5.2a5.475,5.475,0,0,0,5.469,5.469h5.2a5.475,5.475,0,0,0,5.469-5.469v-5.2A5.475,5.475,0,0,0,10.664,276ZM13.4,286.664a2.737,2.737,0,0,1-2.734,2.734h-5.2a2.737,2.737,0,0,1-2.734-2.734v-5.2a2.737,2.737,0,0,1,2.734-2.734h5.2a2.737,2.737,0,0,1,2.734,2.734Z" transform="translate(0 -276)" fill="#1e2127"/>
    </g>
  </g>
  <g id="Group_281" data-name="Group 281" transform="translate(18.867 18.867)">
    <g id="Group_280" data-name="Group 280">
      <path id="Path_385" data-name="Path 385" d="M290.766,285.3a1.367,1.367,0,0,0-1.367,1.367,2.737,2.737,0,0,1-2.734,2.734h-5.2a2.737,2.737,0,0,1-2.734-2.734v-5.2a2.737,2.737,0,0,1,2.734-2.734h5.2a2.736,2.736,0,0,1,2.507,1.64,1.367,1.367,0,1,0,2.505-1.1A5.471,5.471,0,0,0,286.664,276h-5.2A5.475,5.475,0,0,0,276,281.469v5.2a5.475,5.475,0,0,0,5.469,5.469h5.2a5.475,5.475,0,0,0,5.469-5.469A1.367,1.367,0,0,0,290.766,285.3Z" transform="translate(-276 -276)" fill="#1e2127"/>
    </g>
  </g>
</svg>
