<svg xmlns="http://www.w3.org/2000/svg" width="385.99" height="1587.505" viewBox="0 0 385.99 1587.505">
  <g id="Group_309" data-name="Group 309" transform="translate(-955.738 -1622.239)">
    <path id="Path_48" data-name="Path 48" d="M2895,1531s-78.417,66.943-182.2,68.754-133.115,87.01-79.5,187.15,71.165,132.226,11.785,342.071-37.711,248.685,9.39,310.193,201.9,72.925,211.417,243.857,74.321,306.5,74.321,306.5V1531Z" transform="translate(-1615 220)" fill="none" stroke="#1e2127" stroke-width="1" opacity="0.08"/>
    <path id="Path_47" data-name="Path 47" d="M2895,1402.739s-31.006,101.362-85.781,135.217-142.152,123.623-103.734,267-84.064,250.742-84.064,250.742-104.675,93.208-11.629,189.664,156.659,165.036,150.947,240.451,39.058,191.926,139.528,240.061,34.993-1323.136,34.993-1323.136Z" transform="translate(-1615 220)" fill="none" stroke="#1e2127" stroke-width="1" opacity="0.1"/>
  </g>
</svg>
