<svg id="layers" xmlns="http://www.w3.org/2000/svg" width="29.872" height="29" viewBox="0 0 29.872 29">
  <path id="Path_389" data-name="Path 389" d="M14.937,26.231a8.336,8.336,0,0,1-3.944-.994L2.088,20.46a3.952,3.952,0,0,1,.02-6.979L11.035,8.76a8.338,8.338,0,0,1,7.8,0l8.928,4.722a3.952,3.952,0,0,1,.02,6.979l-8.905,4.777a8.337,8.337,0,0,1-3.944.994Zm0-16.106a6.006,6.006,0,0,0-2.81.7L3.2,15.545A1.618,1.618,0,0,0,3.191,18.4L12.1,23.181a6,6,0,0,0,5.682,0L26.683,18.4a1.618,1.618,0,0,0-.008-2.859l-8.928-4.722A6.007,6.007,0,0,0,14.937,10.124Zm-3.356-.333h0Zm7.3,26.006,10.376-5.566a1.167,1.167,0,0,0-1.1-2.057L17.778,33.741a6,6,0,0,1-5.686,0L1.715,28.231A1.167,1.167,0,0,0,.621,30.292l10.372,5.5a8.325,8.325,0,0,0,7.888,0Zm0-5.251,10.376-5.566a1.167,1.167,0,0,0-1.1-2.057L17.778,28.49a6,6,0,0,1-5.686,0L1.715,22.98A1.167,1.167,0,0,0,.621,25.041l10.372,5.5a8.325,8.325,0,0,0,7.888,0Z" transform="translate(-0.001 -7.79)" fill="#444357"/>
</svg>
