<svg xmlns="http://www.w3.org/2000/svg" width="177" height="63" viewBox="0 0 177 63">
  <g id="Group_290" data-name="Group 290" transform="translate(-4207 -7438)">
    <rect id="Rectangle_232" data-name="Rectangle 232" width="177" height="63" transform="translate(4207 7438)" fill="#fff" opacity="0"/>
    <g id="lottiefiles_logo_1_" data-name="lottiefiles_logo (1)" transform="translate(4171 7449.01)">
      <path id="Path_401" data-name="Path 401" d="M51.813,33.122V8.878h4.868V28.854h10.69v4.268H51.812Zm26.383.307c-5.31,0-8.851-3.653-8.851-8.639s3.54-8.6,8.85-8.6c5.175,0,8.818,3.483,8.818,8.6,0,5.088-3.643,8.64-8.817,8.64Zm0-4.029a4.337,4.337,0,0,0,4.29-4.61,4.317,4.317,0,1,0-8.614,0A4.342,4.342,0,0,0,78.2,29.4Zm16.613,4.03c-2.86,0-4.732-1.81-4.732-5.567V20.146H88.1V16.424h1.975V10.995l4.46-.478v5.907H99.03v3.722H94.536v7.069c0,1.468.375,2.15,1.43,2.15a5.176,5.176,0,0,0,2.11-.58L99.2,32.371a8,8,0,0,1-4.391,1.058Zm12.561,0c-2.86,0-4.732-1.81-4.732-5.567V20.146h-1.974V16.424h1.974V10.995l4.46-.478v5.907h4.493v3.722H107.1v7.069c0,1.468.374,2.15,1.43,2.15a5.184,5.184,0,0,0,2.11-.58l1.124,3.586a8.007,8.007,0,0,1-4.392,1.058Zm9.907-19.26A2.75,2.75,0,1,1,120.1,11.4a2.745,2.745,0,0,1-2.825,2.765ZM115,33.122v-16.7h4.46v16.7Zm23.557-8.5c0,.546-.068,1.331-.1,1.6H126.774a4.241,4.241,0,0,0,4.392,3.21,4.965,4.965,0,0,0,4.051-1.878l2.894,2.7c-1.4,1.81-3.54,3.175-7.251,3.175-5.107,0-8.715-3.449-8.715-8.673,0-5.088,3.506-8.57,8.442-8.57,4.7,0,7.966,3.55,7.966,8.434Zm-8-4.542a3.707,3.707,0,0,0-3.744,2.937h7.319A3.507,3.507,0,0,0,130.553,20.078Z" fill="#18c8ca" fill-rule="evenodd"/>
      <path id="Path_402" data-name="Path 402" d="M141.243,33.122V8.878h16.034v4.268h-11.3v6.488h9.43v4.3h-9.43v9.185h-4.731Zm22.025-18.951a2.75,2.75,0,1,1,2.826-2.766A2.745,2.745,0,0,1,163.268,14.171Zm-2.28,18.951v-16.7h4.459v16.7h-4.46Zm8.1,0V7.99h4.46V33.122Zm23.558-8.5c0,.546-.068,1.331-.1,1.6H180.868a4.241,4.241,0,0,0,4.392,3.21,4.962,4.962,0,0,0,4.05-1.878l2.894,2.7c-1.4,1.81-3.54,3.175-7.25,3.175-5.107,0-8.716-3.449-8.716-8.673,0-5.088,3.507-8.57,8.443-8.57,4.7,0,7.966,3.55,7.966,8.434Zm-8-4.542a3.708,3.708,0,0,0-3.745,2.937h7.32a3.508,3.508,0,0,0-3.575-2.937ZM201.5,33.429a10.04,10.04,0,0,1-6.74-2.458l2.145-3.108a6.45,6.45,0,0,0,4.63,1.913c1.294,0,2.008-.547,2.008-1.366,0-.717-.85-1.093-2.995-1.81-2.758-.922-5.14-2.22-5.14-5.463,0-3,2.586-4.952,6.025-4.952a9.349,9.349,0,0,1,6.06,2.083l-2.18,3.312a5.878,5.878,0,0,0-3.982-1.775c-.681,0-1.566.341-1.566,1.23,0,.682.817,1.16,2.45,1.775,3.61,1.331,5.72,2.117,5.72,5.429,0,2.937-2.077,5.19-6.434,5.19Z" fill="#006b78" fill-rule="evenodd"/>
    </g>
  </g>
</svg>
