<svg xmlns="http://www.w3.org/2000/svg" width="56.482" height="56.49" viewBox="0 0 56.482 56.49">
  <g id="next-js" transform="translate(-0.5 -0.325)">
    <path id="Path_393" data-name="Path 393" d="M26.891.34c-.121.011-.508.05-.856.077a28.308,28.308,0,0,0-20.3,11.7A27.958,27.958,0,0,0,.754,24.462,21.619,21.619,0,0,0,.5,28.575a21.619,21.619,0,0,0,.254,4.113A28.358,28.358,0,0,0,20.073,55.508a29.858,29.858,0,0,0,5.963,1.237,52.021,52.021,0,0,0,5.411,0,28.514,28.514,0,0,0,10.176-2.976c.486-.248.58-.315.513-.37-.044-.033-2.115-2.81-4.6-6.167l-4.516-6.1-5.659-8.376c-3.114-4.6-5.676-8.37-5.7-8.37s-.044,3.716-.055,8.26c-.017,7.956-.022,8.276-.121,8.464a1,1,0,0,1-.486.5c-.177.088-.331.1-1.165.1H18.88l-.254-.16a1.032,1.032,0,0,1-.37-.4L18.14,40.9l.011-11.07.017-11.076.171-.215a1.515,1.515,0,0,1,.409-.337c.226-.11.315-.121,1.27-.121,1.126,0,1.314.044,1.607.364.083.088,3.147,4.7,6.813,10.264s8.679,13.152,11.142,16.878l4.472,6.775.226-.149a28.992,28.992,0,0,0,5.8-5.091,28.116,28.116,0,0,0,6.648-14.438,21.619,21.619,0,0,0,.254-4.113,21.619,21.619,0,0,0-.254-4.113A28.358,28.358,0,0,0,37.409,1.643,29.65,29.65,0,0,0,31.529.412C31,.356,27.35.3,26.891.34ZM38.453,17.422a1.114,1.114,0,0,1,.558.652c.044.144.055,3.213.044,10.131l-.017,9.927-1.75-2.683-1.756-2.683V25.55c0-4.665.022-7.288.055-7.415a1.126,1.126,0,0,1,.547-.7c.226-.116.309-.127,1.176-.127.817,0,.961.011,1.143.11Z" transform="translate(0 0)"/>
    <path id="Path_394" data-name="Path 394" d="M758.553,943.116c-.193.121-.254.2-.083.11.121-.072.32-.221.287-.226A1.133,1.133,0,0,0,758.553,943.116Zm-.381.248c-.1.077-.1.083.022.022a.339.339,0,0,0,.121-.083C758.315,943.259,758.288,943.271,758.172,943.364Zm-.276.166c-.1.077-.1.083.022.022a.338.338,0,0,0,.122-.083C758.039,943.425,758.012,943.436,757.9,943.53Zm-.276.166c-.1.077-.1.083.022.022a.338.338,0,0,0,.122-.083C757.763,943.591,757.736,943.6,757.62,943.7Zm-.42.221c-.21.11-.2.155.011.05a.574.574,0,0,0,.166-.11C757.377,943.817,757.371,943.823,757.2,943.917Z" transform="translate(-714.777 -890.628)"/>
  </g>
</svg>
