<svg xmlns="http://www.w3.org/2000/svg" width="55.902" height="63.435" viewBox="0 0 55.902 63.435">
  <g id="nginx-ingress" transform="translate(-35.686 -6)">
    <path id="path8" d="M71.3,75.607a2.136,2.136,0,0,1-1.1-.3L45.549,61.091a2.3,2.3,0,0,1-.812-.812,2.261,2.261,0,0,1-.287-1.1V30.735a2.3,2.3,0,0,1,.287-1.112,2.174,2.174,0,0,1,.812-.8L70.184,14.57a2.186,2.186,0,0,1,1.112-.3,2.061,2.061,0,0,1,1.087.3L97.017,28.812a2.174,2.174,0,0,1,1.112,1.911V59.167a2.3,2.3,0,0,1-.287,1.112,2.173,2.173,0,0,1-.812.8L72.395,75.307a2.136,2.136,0,0,1-1.1.3Z" transform="translate(-7.652 -7.221)" fill="none"/>
    <path id="path10" d="M63.643,8.124a.987.987,0,0,1,.562.162L88.853,22.515a1.149,1.149,0,0,1,.412.4,1.112,1.112,0,0,1,.15.562V51.959a1.074,1.074,0,0,1-.15.55,1.149,1.149,0,0,1-.425.425L64.193,67.161a1.112,1.112,0,0,1-1.137,0L38.422,52.92a1.074,1.074,0,0,1-.562-.987V23.477a1.112,1.112,0,0,1,.15-.562,1.249,1.249,0,0,1,.425-.412L63.081,8.274a1.112,1.112,0,0,1,.562-.15m0-2.124a3.273,3.273,0,0,0-1.636.437L37.372,20.666a3.261,3.261,0,0,0-1.249,1.187,3.323,3.323,0,0,0-.437,1.649V51.934a3.248,3.248,0,0,0,.487,1.624,3.173,3.173,0,0,0,1.249,1.249L62.057,68.985a3.16,3.16,0,0,0,1.637.45,3.286,3.286,0,0,0,1.636-.45L89.9,54.807a3.338,3.338,0,0,0,1.686-2.9V23.5a3.323,3.323,0,0,0-.437-1.649A3.261,3.261,0,0,0,89.9,20.666L65.267,6.437A3.235,3.235,0,0,0,63.643,6Z" transform="translate(0)" fill="#009639"/>
    <path id="path12" d="M150.232,170.424a3.173,3.173,0,0,1-6.333,0V148.662a3.3,3.3,0,0,1,3.5-3.086h.1a5.621,5.621,0,0,1,4.322,1.924l.949,1.149,13.242,15.84V148.75a3.173,3.173,0,0,1,6.333,0V170.5a3.3,3.3,0,0,1-3.5,3.086h-.087a5.622,5.622,0,0,1-4.4-1.911l-14.129-17.014Z" transform="translate(-94.484 -121.863)" fill="#009639"/>
  </g>
</svg>
