<svg xmlns="http://www.w3.org/2000/svg" width="71.745" height="54.142" viewBox="0 0 71.745 54.142">
  <g id="nuxt-square" transform="translate(-0.005 -1.004)">
    <path id="Path_397" data-name="Path 397" d="M40.964,15.82,38.5,20.152,30.091,5.335,4.264,50.814H21.75a4.3,4.3,0,0,0,4.26,4.331H4.264A4.247,4.247,0,0,1,.575,52.979a4.394,4.394,0,0,1,0-4.331L26.4,3.169a4.225,4.225,0,0,1,7.378,0Z" transform="translate(0)" fill="#00c58e"/>
    <path id="Path_398" data-name="Path 398" d="M158.869,116.279l-16.184-28.5-2.46-4.331-2.46,4.331-16.182,28.5a4.394,4.394,0,0,0,0,4.331,4.247,4.247,0,0,0,3.689,2.166h29.9a4.248,4.248,0,0,0,3.69-2.165,4.394,4.394,0,0,0,0-4.332Zm-33.6,2.166,14.954-26.331,14.95,26.331Z" transform="translate(-99.261 -67.631)" fill="#2f495e"/>
    <path id="Path_399" data-name="Path 399" d="M258.136,93.9a4.247,4.247,0,0,1-3.688,2.166H242.871a4.3,4.3,0,0,0,4.26-4.331h7.307L233.7,55.215l-3.323,5.853-2.46-4.331,2.094-3.687a4.225,4.225,0,0,1,7.378,0l20.742,36.515A4.394,4.394,0,0,1,258.136,93.9Z" transform="translate(-186.957 -40.916)" fill="#108775"/>
  </g>
</svg>
