<svg xmlns="http://www.w3.org/2000/svg" width="24.804" height="22.15" viewBox="0 0 24.804 22.15">
  <g id="React" transform="translate(-3.832 -4.31)">
    <path id="Path_345" data-name="Path 345" d="M19.063,15.861A2.266,2.266,0,1,1,16.8,13.6,2.266,2.266,0,0,1,19.063,15.861Z" transform="translate(-0.562 -0.488)" fill="#1e2127"/>
    <path id="Path_346" data-name="Path 346" d="M16.234,23.707c1.779,1.73,3.533,2.753,4.947,2.753a2.449,2.449,0,0,0,1.267-.316c1.267-.731,1.73-2.559,1.291-5.166-.073-.463-.171-.926-.293-1.414.487-.146.926-.293,1.364-.439,2.461-.95,3.826-2.266,3.826-3.7,0-1.462-1.364-2.778-3.826-3.7a11.27,11.27,0,0,0-1.364-.439c.122-.487.22-.95.293-1.414.414-2.656-.048-4.508-1.316-5.239a2.453,2.453,0,0,0-1.267-.316c-1.389,0-3.168,1.023-4.947,2.753C14.455,5.333,12.7,4.31,11.287,4.31a2.449,2.449,0,0,0-1.267.316c-1.267.731-1.73,2.559-1.291,5.166.073.463.171.926.293,1.414-.487.146-.926.293-1.364.439-2.461.95-3.826,2.266-3.826,3.7,0,1.462,1.364,2.778,3.826,3.7a11.27,11.27,0,0,0,1.364.439q-.178.7-.293,1.414c-.414,2.607.048,4.46,1.291,5.166a2.444,2.444,0,0,0,1.267.316c1.414.048,3.168-.975,4.947-2.68Zm-1.365-3.289c.439.025.9.025,1.364.025s.926,0,1.364-.025q-.644.847-1.364,1.632-.72-.784-1.364-1.632Zm-3.021-2.51c.243.414.463.8.731,1.194q-1.079-.138-2.144-.366c.22-.658.463-1.341.755-2.023.2.389.414.8.658,1.194Zm-1.414-5.873c.682-.146,1.389-.268,2.144-.366-.243.39-.487.78-.731,1.194s-.463.8-.658,1.218a16.209,16.209,0,0,1-.755-2.047Zm1.341,3.339c.316-.658.658-1.316,1.048-1.973.366-.634.78-1.267,1.194-1.9a33.437,33.437,0,0,1,4.436,0c.439.634.828,1.267,1.194,1.9.39.658.731,1.316,1.048,1.973q-.48,1.009-1.048,1.973c-.366.634-.78,1.267-1.194,1.9a33.437,33.437,0,0,1-4.436,0q-.636-.925-1.194-1.9t-1.048-1.974ZM21.3,14.057l-.658-1.218c-.243-.414-.463-.8-.731-1.194.755.1,1.462.22,2.144.366-.219.682-.463,1.364-.755,2.047Zm0,2.632c.293.682.536,1.364.755,2.023-.682.146-1.389.268-2.144.366.243-.39.487-.78.731-1.194.22-.366.439-.78.658-1.194Zm.56,8.456a1.32,1.32,0,0,1-.707.171c-1.194,0-2.68-.975-4.142-2.437a25.456,25.456,0,0,0,2.071-2.559,22.377,22.377,0,0,0,3.266-.512,12.465,12.465,0,0,1,.268,1.316c.341,2.071.073,3.558-.755,4.021ZM23.13,12.3c2.73.78,4.362,1.973,4.362,3.071,0,.95-1.121,1.9-3.094,2.657-.39.146-.828.293-1.267.414a25.591,25.591,0,0,0-1.194-3.071A22.023,22.023,0,0,0,23.131,12.3ZM21.18,5.431a1.378,1.378,0,0,1,.707.171c.8.463,1.1,1.925.755,4.021-.073.414-.171.853-.268,1.316a31.334,31.334,0,0,0-3.266-.512,22.525,22.525,0,0,0-2.071-2.559c1.462-1.438,2.948-2.437,4.142-2.437Zm-3.582,4.9c-.439-.025-.9-.025-1.364-.025s-.926,0-1.364.025c.439-.585.9-1.121,1.364-1.632C16.7,9.208,17.159,9.769,17.6,10.329ZM10.6,5.6a1.32,1.32,0,0,1,.707-.171c1.194,0,2.68.975,4.142,2.437a25.349,25.349,0,0,0-2.071,2.559,22.377,22.377,0,0,0-3.266.512,12.463,12.463,0,0,1-.268-1.316C9.507,7.551,9.775,6.089,10.6,5.6ZM9.338,18.444c-2.73-.78-4.362-1.973-4.362-3.071,0-.95,1.121-1.9,3.094-2.656.39-.146.828-.293,1.267-.414a25.59,25.59,0,0,0,1.194,3.071,23.276,23.276,0,0,0-1.194,3.071Zm.512,2.68c.073-.414.171-.853.268-1.316a31.333,31.333,0,0,0,3.266.512,22.524,22.524,0,0,0,2.071,2.559c-1.462,1.437-2.948,2.437-4.142,2.437a1.378,1.378,0,0,1-.707-.171c-.829-.463-1.1-1.95-.755-4.021Z" transform="translate(0)" fill="#1e2127"/>
  </g>
</svg>
